<svg width="40" height="40" viewBox="0 0 40 40" fill="none" xmlns="http://www.w3.org/2000/svg">
<path d="M28.6798 0.000228882C35.4598 0.000228882 39.9998 4.75823 39.9998 11.8382V28.1782C39.9998 35.2402 35.4598 40.0002 28.6798 40.0002H11.3398C4.55979 40.0002 -0.000213623 35.2402 -0.000213623 28.1782V11.8382C-0.000213623 4.75823 4.55979 0.000228882 11.3398 0.000228882H28.6798ZM19.2998 9.83823C18.4798 9.83823 17.7998 10.5202 17.7998 11.3382V21.4402C17.7998 21.9602 18.0798 22.4602 18.5398 22.7202L26.3798 27.4002C26.6198 27.5602 26.8998 27.6202 27.1598 27.6202C27.6598 27.6202 28.1598 27.3602 28.4398 26.8802C28.8798 26.1782 28.6398 25.2582 27.9198 24.8202L20.7998 20.5802V11.3382C20.7998 10.5202 20.1398 9.83823 19.2998 9.83823Z" fill="#FDBA74"/>
</svg>
